#!OML:ASF H:\Terrain\Patient Classification 1\Animal1\Tuesday\Animal1.ASF
:FULLY-SPECIFIED
:DEGREES
1822
root 8.91674 16.7367 11.0172 -351 6.08365 718.218
lowerback -3.60725 -0.215981 -1.32816
upperback -6.95716 -0.249539 0.602563
thorax -5.1685 -0.0330223 1.36932
lowerneck -8.40346 -1.48571 -4.5677
upperneck 18.5056 -2.82221 7.93791
head 7.2073 -0.981965 3.10703
rclavicle 2.45996e-015 7.95139e-015
rhumerus -38.8342 11.8589 -87.967
rradius 26.0204
rwrist -10.8557
rhand -19.7396 28.1038
rfingers 7.12502
rthumb 6.59123 -1.77363
lclavicle 2.45996e-015 7.95139e-015
lhumerus -42.2278 8.20773 81.9562
lradius 36.6859
lwrist -25.2497
lhand 0.632963 40.9413
lfingers 7.12502
lthumb 26.1965 69.1535
rfemur -22.1532 28.4796 22.0679
rtibia 26.0863
rfoot -20.6131 -38.4036
rtoes 21.5656
lfemur -27.3163 -10.3127 -21.625
ltibia 35.7714
lfoot -18.2033 17.0184
ltoes -9.87714
1823
root 8.88873 16.7293 11.0123 -350.937 6.05562 718.356
lowerback -3.5346 -0.236671 -1.41075
upperback -6.98386 -0.280903 0.53546
thorax -5.23711 -0.0457286 1.34674
lowerneck -8.61249 -1.44867 -4.35227
upperneck 18.7719 -2.79985 7.85311
head 7.32631 -0.955611 3.04819
rclavicle -2.03257e-014 1.15295e-014
rhumerus -38.9773 12.7648 -88.7323
rradius 26.2839
rwrist -12.1541
rhand -20.5668 28.376
rfingers 7.12502
rthumb 5.79257 -1.52479
lclavicle -2.03257e-014 1.15295e-014
lhumerus -42.4284 8.39368 81.7419
lradius 36.8407
lwrist -25.5261
lhand 1.11756 40.4896
lfingers 7.12502
lthumb 26.6604 68.6322
rfemur -22.4683 28.2147 21.996
rtibia 26.486
rfoot -20.7379 -38.1205
rtoes 20.4689
lfemur -27.3573 -10.4717 -22.1963
ltibia 35.5578
lfoot -18.2127 16.4071
ltoes -10.0203
1824
root 8.86265 16.7215 11.0107 -350.875 6.13386 718.446
lowerback -3.46685 -0.302753 -1.46909
upperback -6.97804 -0.370874 0.521859
thorax -5.26623 -0.0878856 1.36664
lowerneck -8.80231 -1.37369 -4.2011
upperneck 18.8996 -2.7172 7.81987
head 7.39443 -0.902583 3.02073
rclavicle -7.55382e-015 9.74045e-015
rhumerus -38.9058 12.5793 -88.7445
rradius 26.3766
rwrist -11.6131
rhand -20.5176 29.0845
rfingers 7.12502
rthumb 5.84009 -0.814985
lclavicle -7.55382e-015 9.74045e-015
lhumerus -42.4957 8.58118 81.5874
lradius 37.4659
lwrist -26.8611
lhand 4.51317 41.5244
lfingers 7.12502
lthumb 29.9055 69.1288
rfemur -22.637 27.4234 22.1619
rtibia 26.8524
rfoot -19.4726 -38.2992
rtoes 16.6058
lfemur -27.4237 -10.6016 -22.7193
ltibia 35.3618
lfoot -17.5068 16.3259
ltoes -13.7747
1825
root 8.83601 16.7228 11.0128 -350.823 6.09184 718.318
lowerback -3.43344 -0.281511 -1.33612
upperback -6.98222 -0.33992 0.597401
thorax -5.29063 -0.0768299 1.37042
lowerneck -8.79787 -1.39349 -4.35406
upperneck 18.8584 -2.73771 7.9258
head 7.38453 -0.9146 3.07932
rclavicle -7.8023e-015 2.98177e-015
rhumerus -38.8244 12.2812 -88.5177
rradius 26.3105
rwrist -10.6544
rhand -20.2075 29.4538
rfingers 7.12502
rthumb 6.13953 -0.437285
lclavicle -7.8023e-015 2.98177e-015
lhumerus -42.4206 8.44328 81.7998
lradius 37.4079
lwrist -26.5742
lhand 4.5986 41.8262
lfingers 7.12502
lthumb 29.987 69.4158
rfemur -22.7063 26.2251 22.7212
rtibia 27.1704
rfoot -17.2117 -38.5582
rtoes 10.5866
lfemur -27.4853 -10.7696 -22.8877
ltibia 35.1857
lfoot -17.3719 15.932
ltoes -14.0131
1826
root 8.80371 16.7157 11.0209 -350.726 5.93118 718.08
lowerback -3.55485 -0.231684 -1.2032
upperback -7.01754 -0.267077 0.718346
thorax -5.26154 -0.043711 1.42018
lowerneck -8.7378 -1.46612 -4.54633
upperneck 18.8527 -2.83215 8.04725
head 7.38203 -0.964228 3.14369
rclavicle 2.70844e-015 2.54444e-014
rhumerus -38.8257 12.3507 -88.5187
rradius 26.2035
rwrist -10.397
rhand -20.1446 29.8466
rfingers 7.12502
rthumb 6.20018 -0.0426328
lclavicle 2.70844e-015 2.54444e-014
lhumerus -42.4315 8.51463 81.779
lradius 36.9339
lwrist -26.1368
lhand 3.63948 40.5306
lfingers 7.12502
lthumb 29.0715 68.282
rfemur -22.9789 26.0526 23.0775
rtibia 27.4655
rfoot -17.7794 -38.2688
rtoes 10.7875
lfemur -27.5846 -10.9988 -22.8026
ltibia 34.9874
lfoot -17.5742 15.5331
ltoes -13.4731
1827
root 8.77426 16.702 11.0274 -350.541 5.82749 718.002
lowerback -3.73518 -0.211354 -1.19852
upperback -7.09238 -0.23588 0.768837
thorax -5.23977 -0.0264486 1.46916
lowerneck -8.68173 -1.48304 -4.59461
upperneck 18.902 -2.86824 8.12744
head 7.39199 -0.978464 3.17614
rclavicle -5.04416e-015 -9.34288e-015
rhumerus -39.0165 12.2861 -88.5531
rradius 26.4492
rwrist -10.3992
rhand -19.832 30.3105
rfingers 7.12502
rthumb 6.50198 0.430301
lclavicle -5.04416e-015 -9.34288e-015
lhumerus -42.4678 8.29634 81.882
lradius 36.5445
lwrist -25.1632
lhand 1.56338 39.146
lfingers 7.12502
lthumb 27.087 67.2228
rfemur -23.3646 26.4433 23.0306
rtibia 27.6515
rfoot -20.1317 -37.5386
rtoes 15.1887
lfemur -27.8432 -11.3342 -22.8219
ltibia 34.8249
lfoot -17.1492 15.3465
ltoes -15.9218
1828
root 8.7528 16.7034 11.0316 -350.47 5.75515 718.03
lowerback -3.75441 -0.203201 -1.17409
upperback -7.14436 -0.226315 0.732678
thorax -5.28447 -0.0233489 1.41805
lowerneck -8.64384 -1.43562 -4.50825
upperneck 18.9861 -2.83364 8.18176
head 7.40967 -0.950613 3.18409
rclavicle -2.28602e-015 -7.55382e-015
rhumerus -39.1504 12.1372 -88.7489
rradius 26.7142
rwrist -10.6922
rhand -19.8228 30.0918
rfingers 7.12502
rthumb 6.51093 0.211881
lclavicle -2.28602e-015 -7.55382e-015
lhumerus -42.5336 7.37206 82.524
lradius 36.3767
lwrist -22.804
lhand -2.37943 39.7478
lfingers 7.12502
lthumb 23.3094 68.3567
rfemur -23.3825 25.9489 23.2092
rtibia 27.6765
rfoot -18.0911 -37.812
rtoes 11.3593
lfemur -27.932 -11.8319 -22.9268
ltibia 34.7236
lfoot -16.8856 15.2999
ltoes -16.5587
1829
root 8.72922 16.7086 11.0342 -350.485 5.70229 717.992
lowerback -3.69391 -0.203771 -1.12143
upperback -7.12075 -0.227952 0.734555
thorax -5.29363 -0.027057 1.39068
lowerneck -8.68202 -1.40305 -4.38997
upperneck 18.9516 -2.80508 8.18282
head 7.40199 -0.928138 3.16626
rclavicle 5.59082e-015 1.53064e-014
rhumerus -39.0132 11.907 -88.7852
rradius 26.7673
rwrist -10.3137
rhand -19.8856 29.3313
rfingers 7.12502
rthumb 6.45022 -0.550435
lclavicle 5.59082e-015 1.53064e-014
lhumerus -42.3974 7.63959 82.2769
lradius 36.4239
lwrist -24.1321
lhand 0.0269621 40.2584
lfingers 7.12502
lthumb 25.6162 68.5554
rfemur -23.2501 25.359 23.5265
rtibia 27.5838
rfoot -16.4713 -37.8021
rtoes 8.27636
lfemur -27.9191 -12.3506 -22.9239
ltibia 34.6928
lfoot -17.192 15.1637
ltoes -14.6013
1830
root 8.70754 16.7112 11.0391 -350.515 5.66363 717.902
lowerback -3.73111 -0.182537 -1.01507
upperback -7.02195 -0.198271 0.77324
thorax -5.16852 -0.0182418 1.37035
lowerneck -8.73377 -1.44887 -4.3222
upperneck 18.8061 -2.86043 8.13603
head 7.36664 -0.95502 3.13167
rclavicle -1.96921e-014 9.74045e-015
rhumerus -38.8251 11.7402 -88.6577
rradius 26.8001
rwrist -9.80048
rhand -19.6124 29.3107
rfingers 7.12502
rthumb 6.71403 -0.562819
lclavicle -1.96921e-014 9.74045e-015
lhumerus -42.124 8.0608 82.0404
lradius 36.3631
lwrist -25.7272
lhand 3.13957 41.1259
lfingers 7.12502
lthumb 28.5939 68.9588
rfemur -23.0762 25.1919 23.7414
rtibia 27.3894
rfoot -20.1081 -36.5839
rtoes 15.1924
lfemur -27.9177 -12.8474 -22.8184
ltibia 34.7556
lfoot -17.5747 14.8823
ltoes -11.7803
1831
root 8.6918 16.7118 11.0443 -350.565 5.58947 717.726
lowerback -3.83132 -0.14164 -0.711487
upperback -6.9033 -0.144261 0.786505
thorax -4.98748 -0.00824855 1.21282
lowerneck -8.8992 -1.50952 -4.30003
upperneck 18.827 -2.95385 8.1765
head 7.41023 -0.990849 3.13287
rclavicle 8.4235e-015 -1.31198e-014
rhumerus -38.7707 11.9891 -88.925
rradius 26.9283
rwrist -10.5757
rhand -19.577 29.5816
rfingers 7.12502
rthumb 6.74816 -0.290901
lclavicle 8.4235e-015 -1.31198e-014
lhumerus -41.9153 8.11906 81.9762
lradius 36.2429
lwrist -26.4955
lhand 4.49009 41.6308
lfingers 7.12502
lthumb 29.8835 69.2391
rfemur -22.6954 24.7411 24.1052
rtibia 26.9396
rfoot -23.172 -35.11
rtoes 20.5383
lfemur -27.9459 -13.1934 -22.6266
ltibia 34.9927
lfoot -17.287 15.3983
ltoes -11.926
1832
root 8.67757 16.7093 11.0468 -350.555 5.55473 717.584
lowerback -3.89042 -0.154319 -0.440278
upperback -6.86646 -0.162718 0.791983
thorax -4.91468 -0.0314819 1.06638
lowerneck -9.10462 -1.49645 -4.19908
upperneck 18.9761 -2.96014 8.18794
head 7.49547 -0.979093 3.12102
rclavicle 9.91439e-015 2.98177e-015
rhumerus -38.9204 12.078 -89.1742
rradius 27.0989
rwrist -10.9169
rhand -19.5103 29.9976
rfingers 7.12502
rthumb 6.81255 0.127179
lclavicle 9.91439e-015 2.98177e-015
lhumerus -41.8561 8.07945 81.9101
lradius 36.1426
lwrist -27.0189
lhand 3.99888 41.4379
lfingers 7.12502
lthumb 29.4146 69.1296
rfemur -22.3426 23.9418 24.48
rtibia 26.4263
rfoot -23.2798 -34.5896
rtoes 18.8672
lfemur -28.0235 -13.4911 -22.4373
ltibia 35.2189
lfoot -16.5295 16.3157
ltoes -12.9132
1833
root 8.63979 16.705 11.0586 -350.723 5.18179 717.105
lowerback -3.85323 -0.0934682 -0.299287
upperback -6.82014 -0.0752644 1.00326
thorax -4.88884 0.0107727 1.20578
lowerneck -9.1272 -1.38223 -3.95905
upperneck 19.1186 -2.81673 8.01416
head 7.53124 -0.906296 3.03805
rclavicle 7.40473e-015 -4.77083e-015
rhumerus -39.0397 11.7567 -89.0966
rradius 27.0749
rwrist -10.0373
rhand -18.9501 30.2851
rfingers 7.12502
rthumb 7.35328 0.432835
lclavicle 7.40473e-015 -4.77083e-015
lhumerus -41.9777 8.12778 81.8108
lradius 36.2008
lwrist -27.4659
lhand 3.27058 41.2622
lfingers 7.12502
lthumb 28.7191 69.0739
rfemur -22.0267 24.3761 25.1393
rtibia 26.0705
rfoot -22.9645 -34.8799
rtoes 17.0357
lfemur -27.9553 -13.5284 -21.7208
ltibia 35.3038
lfoot -16.0834 16.823
ltoes -10.6553
1834
root 8.60509 16.6957 11.0668 -350.791 4.78055 717.082
lowerback -3.84208 -0.0561614 -0.578138
upperback -6.80241 -0.021357 1.09055
thorax -4.87841 0.0535634 1.45215
lowerneck -8.90445 -1.27392 -3.87957
upperneck 19.1199 -2.67807 7.98122
head 7.48061 -0.842045 3.02659
rclavicle 1.3654e-014 1.0138e-014
rhumerus -39.1072 11.7772 -89.1836
rradius 27.0358
rwrist -9.72033
rhand -18.5357 29.7712
rfingers 7.12502
rthumb 7.75331 -0.0666391
lclavicle 1.3654e-014 1.0138e-014
lhumerus -42.0983 8.20239 81.7372
lradius 36.1718
lwrist -27.6916
lhand 3.15815 41.2333
lfingers 7.12502
lthumb 28.6117 69.0631
rfemur -22.0451 25.173 25.0823
rtibia 26.0011
rfoot -21.4332 -35.836
rtoes 13.7781
lfemur -27.8021 -13.5296 -21.4627
ltibia 35.1238
lfoot -15.9545 16.8528
ltoes -7.26592
1835
root 8.58008 16.6803 11.0635 -350.745 4.52866 717.311
lowerback -3.72461 -0.0535814 -0.950179
upperback -6.85897 -0.0174246 1.06724
thorax -5.00585 0.0743384 1.63693
lowerneck -8.69359 -1.28876 -3.89059
upperneck 19.0347 -2.71153 8.05782
head 7.41782 -0.858076 3.04954
rclavicle 7.56624e-015 8.94531e-015
rhumerus -39.2747 12.1971 -89.5117
rradius 27.1246
rwrist -10.091
rhand -18.8225 29.3914
rfingers 7.12502
rthumb 7.47652 -0.45645
lclavicle 7.56624e-015 8.94531e-015
lhumerus -42.1625 8.28321 81.6446
lradius 36.0136
lwrist -27.9667
lhand 3.35379 41.1213
lfingers 7.12502
lthumb 28.7986 68.9195
rfemur -22.241 25.3138 24.7788
rtibia 26.0637
rfoot -19.5566 -36.4108
rtoes 9.97436
lfemur -27.6686 -13.5011 -21.5213
ltibia 34.7838
lfoot -15.6568 16.5566
ltoes -5.66899
